<?xml version="1.0" standalone="no"?>
<!DOCTYPE svg PUBLIC "-//W3C//DTD SVG 20010904//EN"
 "http://www.w3.org/TR/2001/REC-SVG-20010904/DTD/svg10.dtd">
<svg version="1.0" xmlns="http://www.w3.org/2000/svg"
 width="600.000000pt" height="600.000000pt" viewBox="0 0 600.000000 600.000000"
 preserveAspectRatio="xMidYMid meet">
<metadata>
Created by potrace 1.11, written by Peter Selinger 2001-2013
</metadata>
<g transform="translate(0.000000,600.000000) scale(0.100000,-0.100000)"
fill="#000000" stroke="none">
<path d="M2689 5875 c-3 -3 -19 -7 -35 -9 -49 -6 -128 -18 -154 -22 -14 -3
-38 -7 -55 -10 -16 -2 -41 -8 -55 -11 -14 -4 -32 -8 -40 -9 -24 -5 -55 -12
-55 -14 0 -3 -41 -11 -62 -12 -13 0 -23 -4 -23 -8 0 -4 -12 -10 -27 -13 -46
-8 -72 -15 -83 -22 -6 -4 -22 -9 -37 -11 -15 -3 -31 -8 -37 -12 -6 -3 -20 -8
-30 -9 -11 -2 -27 -10 -36 -18 -9 -8 -19 -13 -22 -10 -3 3 -21 -1 -39 -9 -50
-21 -73 -29 -81 -28 -5 1 -8 -3 -8 -8 0 -6 -7 -10 -15 -10 -8 0 -30 -9 -49
-19 -19 -11 -37 -17 -40 -14 -3 4 -6 1 -6 -5 0 -7 -6 -12 -13 -12 -6 0 -56
-24 -110 -54 -53 -29 -97 -51 -97 -47 0 3 -4 1 -8 -4 -4 -6 -38 -31 -77 -55
-38 -25 -76 -50 -83 -57 -7 -7 -17 -13 -22 -13 -5 0 -15 -6 -22 -13 -7 -7 -43
-35 -80 -62 -38 -27 -68 -53 -68 -59 0 -5 -3 -6 -7 -3 -3 4 -12 -2 -20 -13 -8
-11 -18 -20 -24 -20 -5 0 -30 -20 -54 -45 -25 -24 -45 -42 -45 -40 0 3 -31
-28 -70 -67 -38 -40 -70 -76 -70 -80 0 -5 -4 -6 -10 -3 -6 3 -10 2 -10 -3 0
-6 -20 -31 -45 -58 -25 -26 -45 -49 -45 -51 0 -2 -11 -16 -24 -30 -14 -15 -22
-31 -19 -36 3 -6 1 -7 -6 -3 -6 4 -14 0 -18 -10 -3 -10 -13 -25 -21 -33 -29
-33 -103 -138 -138 -198 -20 -35 -41 -63 -46 -63 -5 0 -7 -4 -3 -9 3 -5 1 -12
-5 -16 -6 -4 -8 -10 -5 -15 3 -4 -2 -11 -11 -14 -8 -3 -12 -10 -9 -16 3 -5 1
-10 -5 -10 -6 0 -8 -4 -5 -10 3 -5 3 -10 -2 -10 -4 0 -13 -10 -19 -23 -6 -12
-24 -47 -39 -77 -15 -30 -28 -61 -28 -67 0 -7 -4 -13 -9 -13 -4 0 -8 -9 -8
-20 0 -11 -5 -20 -10 -20 -6 0 -9 -3 -8 -7 1 -5 -4 -21 -10 -36 -7 -16 -12
-33 -12 -38 0 -5 -4 -9 -8 -9 -5 0 -9 -7 -10 -15 -1 -8 -3 -22 -4 -30 -1 -8
-6 -15 -11 -15 -5 0 -7 -7 -3 -15 3 -8 0 -15 -6 -15 -6 0 -8 -3 -5 -7 4 -3 1
-13 -6 -21 -10 -13 -9 -14 3 -7 12 6 11 4 -2 -11 -9 -10 -19 -36 -23 -56 -4
-21 -11 -38 -17 -38 -5 0 -7 -4 -4 -8 3 -4 -4 -42 -15 -83 -11 -40 -22 -85
-24 -99 -2 -14 -7 -36 -10 -50 -4 -14 -8 -35 -10 -47 -12 -81 -19 -109 -29
-115 -7 -5 -7 -8 -1 -8 6 0 10 -12 9 -27 -1 -16 -3 -28 -4 -28 -3 0 -10 -71
-13 -132 -1 -29 -4 -53 -7 -53 -6 0 -3 -216 4 -335 2 -44 5 -80 6 -80 1 0 3
-18 5 -40 4 -46 14 -120 21 -152 2 -13 6 -35 9 -50 3 -16 8 -39 11 -53 3 -14
8 -36 10 -50 3 -14 7 -32 11 -40 3 -8 8 -26 10 -40 10 -55 10 -55 30 -107 3
-10 7 -20 8 -23 22 -73 36 -115 48 -142 15 -34 28 -69 28 -78 1 -3 5 -11 11
-17 6 -7 7 -13 2 -13 -5 0 -3 -4 4 -9 7 -4 14 -14 16 -22 1 -8 8 -24 14 -36 7
-13 9 -23 5 -23 -4 0 -3 -4 2 -8 6 -4 32 -50 59 -102 27 -52 55 -102 62 -111
8 -8 14 -19 14 -24 0 -4 11 -23 26 -42 14 -18 21 -33 17 -33 -4 0 -3 -4 2 -8
6 -4 31 -36 55 -72 24 -36 48 -70 54 -76 6 -6 18 -22 26 -34 8 -13 25 -33 37
-46 13 -13 23 -26 23 -30 0 -4 11 -17 25 -30 14 -13 25 -26 25 -29 0 -12 234
-244 241 -239 5 3 9 0 9 -6 0 -13 24 -40 36 -40 4 0 16 -10 28 -22 12 -13 39
-36 60 -53 22 -16 47 -38 57 -47 11 -10 22 -18 25 -17 3 0 20 -11 37 -26 18
-15 42 -32 55 -38 12 -5 22 -14 22 -19 0 -4 7 -8 15 -8 8 0 15 -4 15 -8 0 -5
18 -17 40 -27 22 -10 40 -21 40 -24 0 -3 15 -12 33 -20 17 -8 34 -18 37 -22 8
-12 220 -119 220 -111 0 4 4 2 8 -3 9 -13 93 -51 104 -48 5 2 8 -2 8 -7 0 -6
7 -10 16 -10 9 0 30 -6 47 -14 93 -40 139 -56 147 -51 6 3 10 1 10 -6 0 -7 3
-10 6 -7 3 4 22 -1 42 -9 20 -8 47 -17 61 -19 13 -3 29 -6 35 -7 6 -1 13 -5
16 -9 4 -4 23 -9 43 -10 20 -2 37 -6 37 -9 0 -3 6 -6 13 -6 6 0 26 -4 42 -7
66 -15 131 -27 155 -29 14 -2 30 -5 35 -8 6 -3 25 -5 43 -5 17 1 32 -2 32 -5
0 -3 17 -6 38 -7 20 0 64 -3 97 -7 110 -11 189 -17 250 -17 71 -1 269 10 305
17 14 2 50 7 80 10 30 3 69 7 85 10 17 3 44 7 60 9 17 2 30 5 30 6 0 1 11 3
25 5 28 4 73 12 110 21 14 3 32 7 40 9 50 10 172 45 187 53 10 6 20 10 23 10
12 1 66 15 75 21 6 3 15 6 20 7 6 1 28 10 50 19 22 10 45 19 50 20 6 1 13 3
18 5 4 1 10 3 15 5 41 12 330 153 337 165 3 6 14 10 25 10 10 0 20 7 24 15 3
8 12 15 20 15 8 0 27 11 43 24 15 13 38 26 51 30 12 4 22 12 22 17 0 5 5 9 11
9 12 0 78 47 97 69 6 8 12 11 12 7 0 -7 43 25 97 74 12 11 26 20 31 20 5 0 20
12 34 27 31 34 147 137 159 141 5 2 9 10 9 18 0 8 6 13 13 11 6 -1 11 3 10 10
-2 6 6 15 17 18 11 4 20 10 20 15 0 4 19 27 43 51 23 24 60 67 82 94 22 28 42
52 45 55 28 28 78 99 73 104 -4 3 -2 6 4 6 13 0 236 347 232 363 0 1 18 43 41
92 23 50 48 104 54 120 26 60 41 100 41 107 0 3 3 10 8 14 4 4 7 15 7 24 0 9
7 31 16 48 8 18 13 36 9 42 -3 5 -2 10 3 10 4 0 19 42 32 93 13 50 27 97 31
103 5 6 6 13 3 16 -3 3 0 24 5 46 6 22 13 55 16 73 3 19 7 45 10 59 2 14 7 52
10 85 3 33 9 71 12 85 11 43 11 484 1 497 -5 7 -9 22 -8 35 1 13 1 25 0 28 -1
3 -3 16 -5 30 -1 14 -5 44 -9 67 -4 23 -9 55 -11 70 -2 15 -9 51 -15 78 -6 28
-12 57 -14 65 -2 8 -9 35 -16 60 -7 25 -14 52 -15 60 -2 8 -4 15 -5 15 -1 0
-3 6 -14 50 -2 11 -12 37 -21 58 -8 21 -13 42 -10 47 4 6 2 10 -4 10 -5 0 -12
14 -16 30 -4 17 -10 30 -13 30 -4 0 -8 12 -9 26 0 15 -7 30 -15 35 -7 5 -9 9
-4 9 4 0 1 11 -8 25 -9 14 -14 25 -12 25 3 0 -25 57 -61 128 -89 173 -93 181
-104 187 -5 4 -7 11 -4 16 4 5 -1 12 -9 15 -9 3 -13 10 -10 15 3 5 0 9 -5 9
-6 0 -11 7 -11 15 0 8 -5 15 -11 15 -5 0 -8 4 -5 8 3 5 -4 15 -15 22 -10 8
-19 22 -19 32 0 10 -7 18 -15 18 -8 0 -15 7 -15 15 0 14 -22 44 -62 87 -10 10
-15 18 -11 18 4 0 -2 8 -13 19 -10 10 -35 38 -54 62 -19 24 -43 50 -52 58 -10
9 -18 21 -18 28 0 7 -7 13 -15 13 -8 0 -15 4 -15 10 0 5 -34 43 -75 83 -41 41
-75 73 -75 72 0 -2 -20 15 -44 38 -41 39 -61 55 -125 104 -13 10 -32 26 -42
36 -11 9 -22 17 -25 17 -3 0 -12 6 -19 13 -33 28 -45 37 -53 37 -5 0 -17 9
-27 20 -10 11 -21 17 -25 15 -4 -3 -10 2 -14 10 -3 8 -12 15 -21 15 -8 0 -15
5 -15 12 0 6 -3 9 -6 5 -3 -3 -14 2 -25 11 -21 18 -106 68 -177 103 -23 12
-45 25 -48 30 -3 5 -14 9 -25 9 -10 0 -19 5 -19 12 0 6 -3 8 -7 5 -3 -4 -12
-2 -20 4 -7 6 -13 8 -13 3 0 -5 -4 -4 -8 1 -9 13 -99 55 -117 55 -8 0 -15 5
-15 12 0 6 -3 8 -7 5 -3 -4 -12 -2 -20 4 -7 6 -13 8 -13 4 0 -4 -6 -3 -12 3
-14 11 -163 64 -188 66 -9 1 -20 5 -26 8 -5 4 -46 16 -89 28 -129 34 -148 39
-198 46 -48 7 -72 12 -72 14 0 3 -42 10 -91 15 -28 3 -62 9 -75 13 -28 8 -703
15 -710 7z"/>
</g>
</svg>
